<mxfile host="65bd71144e">
    <diagram id="gAkbZlVYVY2AK4urrXyD" name="Generation assets">
        <mxGraphModel dx="1572" dy="616" grid="1" gridSize="10" guides="1" tooltips="1" connect="1" arrows="1" fold="1" page="1" pageScale="1" pageWidth="850" pageHeight="1100" math="0" shadow="0">
            <root>
                <mxCell id="0"/>
                <mxCell id="1" parent="0"/>
                <mxCell id="2" value="" style="rounded=0;whiteSpace=wrap;html=1;fillColor=#FFFFFF;strokeColor=none;" vertex="1" parent="1">
                    <mxGeometry x="10" y="260" width="1040" height="470" as="geometry"/>
                </mxCell>
                <mxCell id="i3L5A0lP42RWkP_nEvuQ-9" style="edgeStyle=orthogonalEdgeStyle;rounded=0;html=1;fontColor=#000000;endArrow=block;endFill=0;strokeColor=#000000;" parent="1" source="i3L5A0lP42RWkP_nEvuQ-1" target="i3L5A0lP42RWkP_nEvuQ-5" edge="1">
                    <mxGeometry relative="1" as="geometry">
                        <mxPoint x="470" y="390" as="targetPoint"/>
                        <Array as="points">
                            <mxPoint x="140" y="285"/>
                        </Array>
                    </mxGeometry>
                </mxCell>
                <mxCell id="i3L5A0lP42RWkP_nEvuQ-1" value="mf:Manifest" style="swimlane;fontStyle=0;childLayout=stackLayout;horizontal=1;startSize=26;fillColor=#FFFFFF;horizontalStack=0;resizeParent=1;resizeParentMax=0;resizeLast=0;collapsible=1;marginBottom=0;fontColor=#000000;strokeColor=#000000;" parent="1" vertex="1">
                    <mxGeometry x="60" y="377" width="120" height="78" as="geometry"/>
                </mxCell>
                <mxCell id="i3L5A0lP42RWkP_nEvuQ-2" value="+ mf:include" style="text;strokeColor=#000000;fillColor=#FFFFFF;align=left;verticalAlign=top;spacingLeft=4;spacingRight=4;overflow=hidden;rotatable=0;points=[[0,0.5],[1,0.5]];portConstraint=eastwest;fontColor=#000000;" parent="i3L5A0lP42RWkP_nEvuQ-1" vertex="1">
                    <mxGeometry y="26" width="120" height="26" as="geometry"/>
                </mxCell>
                <mxCell id="i3L5A0lP42RWkP_nEvuQ-3" value="+ mf:entries" style="text;strokeColor=#000000;fillColor=#FFFFFF;align=left;verticalAlign=top;spacingLeft=4;spacingRight=4;overflow=hidden;rotatable=0;points=[[0,0.5],[1,0.5]];portConstraint=eastwest;fontColor=#000000;" parent="i3L5A0lP42RWkP_nEvuQ-1" vertex="1">
                    <mxGeometry y="52" width="120" height="26" as="geometry"/>
                </mxCell>
                <mxCell id="i3L5A0lP42RWkP_nEvuQ-5" value="kgi:GenerationAssets" style="swimlane;fontStyle=0;childLayout=stackLayout;horizontal=1;startSize=26;fillColor=#ffe6cc;horizontalStack=0;resizeParent=1;resizeParentMax=0;resizeLast=0;collapsible=1;marginBottom=0;strokeColor=#000000;fontColor=#000000;" parent="1" vertex="1">
                    <mxGeometry x="405" y="270" width="140" height="52" as="geometry"/>
                </mxCell>
                <mxCell id="i3L5A0lP42RWkP_nEvuQ-4" value="+ kgi:requiredAssets" style="text;strokeColor=#000000;fillColor=#ffe6cc;align=left;verticalAlign=top;spacingLeft=4;spacingRight=4;overflow=hidden;rotatable=0;points=[[0,0.5],[1,0.5]];portConstraint=eastwest;fontColor=#000000;" parent="i3L5A0lP42RWkP_nEvuQ-5" vertex="1">
                    <mxGeometry y="26" width="140" height="26" as="geometry"/>
                </mxCell>
                <mxCell id="i3L5A0lP42RWkP_nEvuQ-10" value="mf:ManifestEntry,Â earl:TestCase" style="swimlane;fontStyle=0;childLayout=stackLayout;horizontal=1;startSize=26;fillColor=#FFFFFF;horizontalStack=0;resizeParent=1;resizeParentMax=0;resizeLast=0;collapsible=1;marginBottom=0;fontColor=#000000;strokeColor=#000000;" parent="1" vertex="1">
                    <mxGeometry x="800" y="375" width="190" height="104" as="geometry"/>
                </mxCell>
                <mxCell id="i3L5A0lP42RWkP_nEvuQ-15" value="+ kgi:onSuccess" style="text;strokeColor=#000000;fillColor=#ffe6cc;align=left;verticalAlign=top;spacingLeft=4;spacingRight=4;overflow=hidden;rotatable=0;points=[[0,0.5],[1,0.5]];portConstraint=eastwest;fontColor=#000000;" parent="i3L5A0lP42RWkP_nEvuQ-10" vertex="1">
                    <mxGeometry y="26" width="190" height="26" as="geometry"/>
                </mxCell>
                <mxCell id="i3L5A0lP42RWkP_nEvuQ-16" value="+ kgi:onFailure" style="text;strokeColor=#000000;fillColor=#ffe6cc;align=left;verticalAlign=top;spacingLeft=4;spacingRight=4;overflow=hidden;rotatable=0;points=[[0,0.5],[1,0.5]];portConstraint=eastwest;fontColor=#000000;" parent="i3L5A0lP42RWkP_nEvuQ-10" vertex="1">
                    <mxGeometry y="52" width="190" height="26" as="geometry"/>
                </mxCell>
                <mxCell id="i3L5A0lP42RWkP_nEvuQ-51" value="+ dcterms:isReferencedBy" style="text;strokeColor=#000000;fillColor=#FFFFFF;align=left;verticalAlign=top;spacingLeft=4;spacingRight=4;overflow=hidden;rotatable=0;points=[[0,0.5],[1,0.5]];portConstraint=eastwest;fontColor=#000000;" parent="i3L5A0lP42RWkP_nEvuQ-10" vertex="1">
                    <mxGeometry y="78" width="190" height="26" as="geometry"/>
                </mxCell>
                <mxCell id="i3L5A0lP42RWkP_nEvuQ-17" style="edgeStyle=orthogonalEdgeStyle;rounded=0;html=1;fontColor=#000000;endArrow=block;endFill=0;strokeColor=#000000;" parent="1" source="i3L5A0lP42RWkP_nEvuQ-10" target="i3L5A0lP42RWkP_nEvuQ-5" edge="1">
                    <mxGeometry relative="1" as="geometry">
                        <mxPoint x="430" y="285" as="targetPoint"/>
                        <mxPoint x="300" y="410" as="sourcePoint"/>
                        <Array as="points">
                            <mxPoint x="755" y="290"/>
                            <mxPoint x="515" y="290"/>
                        </Array>
                    </mxGeometry>
                </mxCell>
                <mxCell id="i3L5A0lP42RWkP_nEvuQ-21" value="" style="endArrow=diamondThin;endFill=0;endSize=24;html=1;rounded=0;fontColor=#000000;edgeStyle=orthogonalEdgeStyle;strokeColor=#000000;" parent="1" source="i3L5A0lP42RWkP_nEvuQ-55" target="i3L5A0lP42RWkP_nEvuQ-4" edge="1">
                    <mxGeometry width="160" relative="1" as="geometry">
                        <mxPoint x="430" y="463" as="sourcePoint"/>
                        <mxPoint x="360" y="477" as="targetPoint"/>
                        <Array as="points">
                            <mxPoint x="630" y="309"/>
                        </Array>
                    </mxGeometry>
                </mxCell>
                <mxCell id="i3L5A0lP42RWkP_nEvuQ-23" value="&lt;font&gt;rdf:List&lt;/font&gt;" style="html=1;fontColor=#000000;fillColor=#FFFFFF;dashed=1;strokeColor=#000000;" parent="1" vertex="1">
                    <mxGeometry x="520" y="421" width="70" height="32" as="geometry"/>
                </mxCell>
                <mxCell id="i3L5A0lP42RWkP_nEvuQ-26" value="" style="endArrow=diamondThin;endFill=0;endSize=24;html=1;rounded=0;fontColor=#000000;edgeStyle=orthogonalEdgeStyle;strokeColor=#000000;" parent="1" source="i3L5A0lP42RWkP_nEvuQ-23" target="i3L5A0lP42RWkP_nEvuQ-15" edge="1">
                    <mxGeometry width="160" relative="1" as="geometry">
                        <mxPoint x="680" y="592" as="sourcePoint"/>
                        <mxPoint x="610" y="580" as="targetPoint"/>
                        <Array as="points">
                            <mxPoint x="670" y="440"/>
                            <mxPoint x="670" y="414"/>
                        </Array>
                    </mxGeometry>
                </mxCell>
                <mxCell id="i3L5A0lP42RWkP_nEvuQ-27" value="" style="endArrow=diamondThin;endFill=0;endSize=24;html=1;rounded=0;fontColor=#000000;edgeStyle=orthogonalEdgeStyle;strokeColor=#000000;" parent="1" source="i3L5A0lP42RWkP_nEvuQ-23" target="i3L5A0lP42RWkP_nEvuQ-16" edge="1">
                    <mxGeometry width="160" relative="1" as="geometry">
                        <mxPoint x="670" y="594" as="sourcePoint"/>
                        <mxPoint x="620" y="580" as="targetPoint"/>
                        <Array as="points">
                            <mxPoint x="630" y="440"/>
                            <mxPoint x="630" y="440"/>
                        </Array>
                    </mxGeometry>
                </mxCell>
                <mxCell id="i3L5A0lP42RWkP_nEvuQ-29" value="&lt;font&gt;rdf:List&lt;/font&gt;" style="html=1;fontColor=#000000;fillColor=#FFFFFF;dashed=1;strokeColor=#000000;" parent="1" vertex="1">
                    <mxGeometry x="320" y="423" width="70" height="32" as="geometry"/>
                </mxCell>
                <mxCell id="i3L5A0lP42RWkP_nEvuQ-31" value="" style="endArrow=diamondThin;endFill=0;endSize=24;html=1;rounded=0;fontColor=#000000;edgeStyle=orthogonalEdgeStyle;strokeColor=#000000;" parent="1" source="i3L5A0lP42RWkP_nEvuQ-5" target="i3L5A0lP42RWkP_nEvuQ-29" edge="1">
                    <mxGeometry width="160" relative="1" as="geometry">
                        <mxPoint x="270" y="679" as="sourcePoint"/>
                        <mxPoint x="150" y="610" as="targetPoint"/>
                        <Array as="points">
                            <mxPoint x="440" y="439"/>
                        </Array>
                    </mxGeometry>
                </mxCell>
                <mxCell id="i3L5A0lP42RWkP_nEvuQ-33" value="" style="endArrow=diamondThin;endFill=0;endSize=24;html=1;rounded=0;fontColor=#000000;edgeStyle=orthogonalEdgeStyle;strokeColor=#000000;" parent="1" source="i3L5A0lP42RWkP_nEvuQ-5" target="i3L5A0lP42RWkP_nEvuQ-23" edge="1">
                    <mxGeometry width="160" relative="1" as="geometry">
                        <mxPoint x="425" y="590" as="sourcePoint"/>
                        <mxPoint x="425" y="684" as="targetPoint"/>
                        <Array as="points">
                            <mxPoint x="480" y="330"/>
                            <mxPoint x="480" y="330"/>
                        </Array>
                    </mxGeometry>
                </mxCell>
                <mxCell id="i3L5A0lP42RWkP_nEvuQ-34" value="kgi:Action" style="swimlane;fontStyle=0;childLayout=stackLayout;horizontal=1;startSize=30;fillColor=#ffe6cc;horizontalStack=0;resizeParent=1;resizeParentMax=0;resizeLast=0;collapsible=1;marginBottom=0;strokeColor=#000000;fontColor=#000000;" parent="1" vertex="1">
                    <mxGeometry x="340" y="530" width="250" height="134" as="geometry"/>
                </mxCell>
                <mxCell id="i3L5A0lP42RWkP_nEvuQ-35" value="+ mf:action" style="text;strokeColor=#000000;fillColor=#FFFFFF;align=left;verticalAlign=top;spacingLeft=4;spacingRight=4;overflow=hidden;rotatable=0;points=[[0,0.5],[1,0.5]];portConstraint=eastwest;fontColor=#000000;" parent="i3L5A0lP42RWkP_nEvuQ-34" vertex="1">
                    <mxGeometry y="30" width="250" height="26" as="geometry"/>
                </mxCell>
                <mxCell id="i3L5A0lP42RWkP_nEvuQ-41" value="+ kgi:endpoint" style="text;strokeColor=#000000;fillColor=#ffe6cc;align=left;verticalAlign=top;spacingLeft=4;spacingRight=4;overflow=hidden;rotatable=0;points=[[0,0.5],[1,0.5]];portConstraint=eastwest;fontColor=#000000;" parent="i3L5A0lP42RWkP_nEvuQ-34" vertex="1">
                    <mxGeometry y="56" width="250" height="26" as="geometry"/>
                </mxCell>
                <mxCell id="i3L5A0lP42RWkP_nEvuQ-38" value="+ kgi:recommendedPagination: xsd:integer" style="text;strokeColor=#000000;fillColor=#ffe6cc;align=left;verticalAlign=top;spacingLeft=4;spacingRight=4;overflow=hidden;rotatable=0;points=[[0,0.5],[1,0.5]];portConstraint=eastwest;fontColor=#000000;" parent="i3L5A0lP42RWkP_nEvuQ-34" vertex="1">
                    <mxGeometry y="82" width="250" height="26" as="geometry"/>
                </mxCell>
                <mxCell id="i3L5A0lP42RWkP_nEvuQ-37" value="+ kgi:timeout: xsd:duration" style="text;strokeColor=#000000;fillColor=#ffe6cc;align=left;verticalAlign=top;spacingLeft=4;spacingRight=4;overflow=hidden;rotatable=0;points=[[0,0.5],[1,0.5]];portConstraint=eastwest;fontColor=#000000;" parent="i3L5A0lP42RWkP_nEvuQ-34" vertex="1">
                    <mxGeometry y="108" width="250" height="26" as="geometry"/>
                </mxCell>
                <mxCell id="i3L5A0lP42RWkP_nEvuQ-43" value="kgi:TestQuery" style="swimlane;fontStyle=0;childLayout=stackLayout;horizontal=1;startSize=26;fillColor=#ffe6cc;horizontalStack=0;resizeParent=1;resizeParentMax=0;resizeLast=0;collapsible=1;marginBottom=0;strokeColor=#000000;fontColor=#000000;" parent="1" vertex="1">
                    <mxGeometry x="760" y="620" width="100" height="78" as="geometry"/>
                </mxCell>
                <mxCell id="i3L5A0lP42RWkP_nEvuQ-52" value="+ kgi:query" style="text;strokeColor=#000000;fillColor=#ffe6cc;align=left;verticalAlign=top;spacingLeft=4;spacingRight=4;overflow=hidden;rotatable=0;points=[[0,0.5],[1,0.5]];portConstraint=eastwest;fontColor=#000000;" parent="i3L5A0lP42RWkP_nEvuQ-43" vertex="1">
                    <mxGeometry y="26" width="100" height="26" as="geometry"/>
                </mxCell>
                <mxCell id="i3L5A0lP42RWkP_nEvuQ-42" value="+ kgi:endpoint" style="text;strokeColor=#000000;fillColor=#ffe6cc;align=left;verticalAlign=top;spacingLeft=4;spacingRight=4;overflow=hidden;rotatable=0;points=[[0,0.5],[1,0.5]];portConstraint=eastwest;fontColor=#000000;" parent="i3L5A0lP42RWkP_nEvuQ-43" vertex="1">
                    <mxGeometry y="52" width="100" height="26" as="geometry"/>
                </mxCell>
                <mxCell id="i3L5A0lP42RWkP_nEvuQ-48" value="kgi:DummyTest" style="swimlane;fontStyle=0;childLayout=stackLayout;horizontal=1;startSize=26;fillColor=#ffe6cc;horizontalStack=0;resizeParent=1;resizeParentMax=0;resizeLast=0;collapsible=1;marginBottom=0;strokeColor=#000000;fontColor=#000000;" parent="1" vertex="1">
                    <mxGeometry x="920" y="620" width="100" height="30" as="geometry"/>
                </mxCell>
                <mxCell id="i3L5A0lP42RWkP_nEvuQ-49" style="edgeStyle=orthogonalEdgeStyle;rounded=0;html=1;fontColor=#000000;endArrow=block;endFill=0;strokeColor=#000000;" parent="1" source="i3L5A0lP42RWkP_nEvuQ-48" target="i3L5A0lP42RWkP_nEvuQ-10" edge="1">
                    <mxGeometry relative="1" as="geometry">
                        <mxPoint x="695" y="700" as="targetPoint"/>
                        <mxPoint x="1045" y="785" as="sourcePoint"/>
                        <Array as="points">
                            <mxPoint x="970" y="590"/>
                            <mxPoint x="895" y="590"/>
                        </Array>
                    </mxGeometry>
                </mxCell>
                <mxCell id="i3L5A0lP42RWkP_nEvuQ-50" style="edgeStyle=orthogonalEdgeStyle;rounded=0;html=1;fontColor=#000000;endArrow=block;endFill=0;strokeColor=#000000;" parent="1" source="i3L5A0lP42RWkP_nEvuQ-43" target="i3L5A0lP42RWkP_nEvuQ-10" edge="1">
                    <mxGeometry relative="1" as="geometry">
                        <mxPoint x="905" y="517" as="targetPoint"/>
                        <mxPoint x="1000" y="610" as="sourcePoint"/>
                        <Array as="points">
                            <mxPoint x="810" y="590"/>
                            <mxPoint x="895" y="590"/>
                        </Array>
                    </mxGeometry>
                </mxCell>
                <mxCell id="i3L5A0lP42RWkP_nEvuQ-53" value="" style="endArrow=diamondThin;endFill=0;endSize=24;html=1;rounded=0;fontColor=#000000;edgeStyle=orthogonalEdgeStyle;exitX=1;exitY=0.5;exitDx=0;exitDy=0;strokeColor=#000000;" parent="1" source="i3L5A0lP42RWkP_nEvuQ-51" target="i3L5A0lP42RWkP_nEvuQ-1" edge="1">
                    <mxGeometry width="160" relative="1" as="geometry">
                        <mxPoint x="920" y="680" as="sourcePoint"/>
                        <mxPoint x="240" y="670" as="targetPoint"/>
                        <Array as="points">
                            <mxPoint x="990" y="470"/>
                            <mxPoint x="1040" y="470"/>
                            <mxPoint x="1040" y="720"/>
                            <mxPoint x="20" y="720"/>
                            <mxPoint x="20" y="429"/>
                        </Array>
                    </mxGeometry>
                </mxCell>
                <mxCell id="i3L5A0lP42RWkP_nEvuQ-54" style="edgeStyle=orthogonalEdgeStyle;rounded=0;html=1;fontColor=#000000;endArrow=block;endFill=0;strokeColor=#000000;" parent="1" source="i3L5A0lP42RWkP_nEvuQ-34" target="i3L5A0lP42RWkP_nEvuQ-5" edge="1">
                    <mxGeometry relative="1" as="geometry">
                        <mxPoint x="40" y="600" as="targetPoint"/>
                        <mxPoint x="390" y="685" as="sourcePoint"/>
                        <Array as="points">
                            <mxPoint x="460" y="510"/>
                            <mxPoint x="460" y="510"/>
                        </Array>
                    </mxGeometry>
                </mxCell>
                <mxCell id="i3L5A0lP42RWkP_nEvuQ-55" value="&lt;font&gt;rdf:List&lt;/font&gt;" style="html=1;fontColor=#000000;fillColor=#FFFFFF;dashed=1;strokeColor=#000000;" parent="1" vertex="1">
                    <mxGeometry x="600" y="343" width="70" height="32" as="geometry"/>
                </mxCell>
                <mxCell id="i3L5A0lP42RWkP_nEvuQ-56" value="" style="endArrow=diamondThin;endFill=0;endSize=24;html=1;rounded=0;fontColor=#000000;edgeStyle=orthogonalEdgeStyle;strokeColor=#000000;" parent="1" source="i3L5A0lP42RWkP_nEvuQ-5" target="i3L5A0lP42RWkP_nEvuQ-55" edge="1">
                    <mxGeometry width="160" relative="1" as="geometry">
                        <mxPoint x="610" y="370" as="sourcePoint"/>
                        <mxPoint x="530" y="332" as="targetPoint"/>
                        <Array as="points">
                            <mxPoint x="520" y="360"/>
                        </Array>
                    </mxGeometry>
                </mxCell>
                <mxCell id="3" value="" style="endArrow=diamondThin;endFill=0;endSize=24;html=1;shadow=0;sketch=0;strokeColor=#000000;entryX=1;entryY=0.5;entryDx=0;entryDy=0;edgeStyle=orthogonalEdgeStyle;rounded=0;" edge="1" parent="1" source="i3L5A0lP42RWkP_nEvuQ-29" target="i3L5A0lP42RWkP_nEvuQ-1">
                    <mxGeometry width="160" relative="1" as="geometry">
                        <mxPoint x="170" y="490" as="sourcePoint"/>
                        <mxPoint x="330" y="490" as="targetPoint"/>
                    </mxGeometry>
                </mxCell>
                <mxCell id="4" value="" style="endArrow=diamondThin;endFill=0;endSize=24;html=1;shadow=0;sketch=0;strokeColor=#000000;edgeStyle=orthogonalEdgeStyle;rounded=0;" edge="1" parent="1" source="i3L5A0lP42RWkP_nEvuQ-29" target="i3L5A0lP42RWkP_nEvuQ-3">
                    <mxGeometry width="160" relative="1" as="geometry">
                        <mxPoint x="340" y="493" as="sourcePoint"/>
                        <mxPoint x="200" y="470" as="targetPoint"/>
                    </mxGeometry>
                </mxCell>
            </root>
        </mxGraphModel>
    </diagram>
    <diagram name="Index" id="b98fa263-6416-c6ec-5b7d-78bf54ef71d0">
        <mxGraphModel dx="1019" dy="869" grid="1" gridSize="10" guides="1" tooltips="1" connect="1" arrows="1" fold="1" page="1" pageScale="1.5" pageWidth="1169" pageHeight="826" background="none" math="0" shadow="0">
            <root>
                <mxCell id="0" style=";html=1;"/>
                <mxCell id="1" style=";html=1;" parent="0"/>
                <mxCell id="3" value="Classname" style="swimlane;fontStyle=0;childLayout=stackLayout;horizontal=1;startSize=26;fillColor=none;horizontalStack=0;resizeParent=1;resizeParentMax=0;resizeLast=0;collapsible=1;marginBottom=0;" vertex="1" parent="1">
                    <mxGeometry x="920" y="130" width="140" height="104" as="geometry"/>
                </mxCell>
                <mxCell id="4" value="+ field: type" style="text;strokeColor=none;fillColor=none;align=left;verticalAlign=top;spacingLeft=4;spacingRight=4;overflow=hidden;rotatable=0;points=[[0,0.5],[1,0.5]];portConstraint=eastwest;" vertex="1" parent="3">
                    <mxGeometry y="26" width="140" height="26" as="geometry"/>
                </mxCell>
                <mxCell id="5" value="+ field: type" style="text;strokeColor=none;fillColor=none;align=left;verticalAlign=top;spacingLeft=4;spacingRight=4;overflow=hidden;rotatable=0;points=[[0,0.5],[1,0.5]];portConstraint=eastwest;" vertex="1" parent="3">
                    <mxGeometry y="52" width="140" height="26" as="geometry"/>
                </mxCell>
                <mxCell id="6" value="+ field: type" style="text;strokeColor=none;fillColor=none;align=left;verticalAlign=top;spacingLeft=4;spacingRight=4;overflow=hidden;rotatable=0;points=[[0,0.5],[1,0.5]];portConstraint=eastwest;" vertex="1" parent="3">
                    <mxGeometry y="78" width="140" height="26" as="geometry"/>
                </mxCell>
                <mxCell id="7" value="dcat:Dataset, void:Dataset, &#10;schema:Dataset, sd:Dataset" style="swimlane;fontStyle=1;childLayout=stackLayout;horizontal=1;startSize=26;fillColor=none;horizontalStack=0;resizeParent=1;resizeParentMax=0;resizeLast=0;collapsible=1;marginBottom=0;" vertex="1" parent="1">
                    <mxGeometry x="240" y="310" width="200" height="104" as="geometry"/>
                </mxCell>
                <mxCell id="8" value="+ field: type" style="text;strokeColor=none;fillColor=none;align=left;verticalAlign=top;spacingLeft=4;spacingRight=4;overflow=hidden;rotatable=0;points=[[0,0.5],[1,0.5]];portConstraint=eastwest;" vertex="1" parent="7">
                    <mxGeometry y="26" width="200" height="26" as="geometry"/>
                </mxCell>
                <mxCell id="9" value="+ field: type" style="text;strokeColor=none;fillColor=none;align=left;verticalAlign=top;spacingLeft=4;spacingRight=4;overflow=hidden;rotatable=0;points=[[0,0.5],[1,0.5]];portConstraint=eastwest;" vertex="1" parent="7">
                    <mxGeometry y="52" width="200" height="26" as="geometry"/>
                </mxCell>
                <mxCell id="10" value="+ field: type" style="text;strokeColor=none;fillColor=none;align=left;verticalAlign=top;spacingLeft=4;spacingRight=4;overflow=hidden;rotatable=0;points=[[0,0.5],[1,0.5]];portConstraint=eastwest;" vertex="1" parent="7">
                    <mxGeometry y="78" width="200" height="26" as="geometry"/>
                </mxCell>
                <mxCell id="12" value="&lt;b&gt;dcat:Catalog&lt;/b&gt;" style="html=1;" vertex="1" parent="1">
                    <mxGeometry x="285" y="530" width="110" height="50" as="geometry"/>
                </mxCell>
                <mxCell id="20" value="" style="group" vertex="1" connectable="0" parent="1">
                    <mxGeometry x="900" y="310" width="300" height="120" as="geometry"/>
                </mxCell>
                <mxCell id="19" value="&lt;div style=&quot;text-align: center;&quot;&gt;&lt;span style=&quot;background-color: initial;&quot;&gt;example_indexation&lt;/span&gt;&lt;span style=&quot;background-color: initial;&quot;&gt;:&lt;/span&gt;&lt;b style=&quot;background-color: initial;&quot;&gt;prov:Activity&lt;/b&gt;&lt;/div&gt;&lt;hr style=&quot;text-align: center;&quot;&gt;&lt;p style=&quot;margin:0px;margin-left:8px;&quot;&gt;&lt;span style=&quot;text-align: center;&quot;&gt;prov:used &amp;lt;https://github.com/Wimmics/IndeGx&lt;/span&gt;&lt;span style=&quot;text-align: center; background-color: initial;&quot;&gt;&amp;gt;&lt;/span&gt;&lt;br&gt;prov:generatedAtTime: xsd:dateTime&lt;/p&gt;" style="verticalAlign=top;align=left;overflow=fill;fontSize=12;fontFamily=Helvetica;html=1;" vertex="1" parent="20">
                    <mxGeometry width="300" height="70" as="geometry"/>
                </mxCell>
                <mxCell id="17" value="{indexation object}" style="text;verticalAlign=middle;align=center;" vertex="1" parent="20">
                    <mxGeometry y="70" width="300" height="30" as="geometry"/>
                </mxCell>
                <mxCell id="21" value="sd:Service, dcat:DataService,&#10;Â prov:Entity" style="swimlane;fontStyle=1;childLayout=stackLayout;horizontal=1;startSize=26;fillColor=none;horizontalStack=0;resizeParent=1;resizeParentMax=0;resizeLast=0;collapsible=1;marginBottom=0;" vertex="1" parent="1">
                    <mxGeometry x="610" y="310" width="200" height="104" as="geometry"/>
                </mxCell>
                <mxCell id="22" value="+ field: type" style="text;strokeColor=none;fillColor=none;align=left;verticalAlign=top;spacingLeft=4;spacingRight=4;overflow=hidden;rotatable=0;points=[[0,0.5],[1,0.5]];portConstraint=eastwest;" vertex="1" parent="21">
                    <mxGeometry y="26" width="200" height="26" as="geometry"/>
                </mxCell>
                <mxCell id="23" value="+ field: type" style="text;strokeColor=none;fillColor=none;align=left;verticalAlign=top;spacingLeft=4;spacingRight=4;overflow=hidden;rotatable=0;points=[[0,0.5],[1,0.5]];portConstraint=eastwest;" vertex="1" parent="21">
                    <mxGeometry y="52" width="200" height="26" as="geometry"/>
                </mxCell>
                <mxCell id="24" value="+ field: type" style="text;strokeColor=none;fillColor=none;align=left;verticalAlign=top;spacingLeft=4;spacingRight=4;overflow=hidden;rotatable=0;points=[[0,0.5],[1,0.5]];portConstraint=eastwest;" vertex="1" parent="21">
                    <mxGeometry y="78" width="200" height="26" as="geometry"/>
                </mxCell>
                <mxCell id="25" value="" style="endArrow=block;dashed=1;endFill=0;endSize=12;html=1;rounded=0;" edge="1" parent="1" source="19" target="26">
                    <mxGeometry width="160" relative="1" as="geometry">
                        <mxPoint x="850" y="510" as="sourcePoint"/>
                        <mxPoint x="840" y="440" as="targetPoint"/>
                    </mxGeometry>
                </mxCell>
                <mxCell id="26" value="&lt;b&gt;prov:Entity&lt;br&gt;&lt;/b&gt;" style="html=1;" vertex="1" parent="1">
                    <mxGeometry x="680" y="130" width="110" height="50" as="geometry"/>
                </mxCell>
                <mxCell id="29" value="" style="endArrow=block;dashed=1;endFill=0;endSize=12;html=1;rounded=0;" edge="1" parent="1" source="21" target="26">
                    <mxGeometry width="160" relative="1" as="geometry">
                        <mxPoint x="887" y="550" as="sourcePoint"/>
                        <mxPoint x="955" y="450" as="targetPoint"/>
                    </mxGeometry>
                </mxCell>
                <mxCell id="30" value="" style="endArrow=block;dashed=1;endFill=0;endSize=12;html=1;rounded=0;" edge="1" parent="1" source="7" target="26">
                    <mxGeometry width="160" relative="1" as="geometry">
                        <mxPoint x="901.875" y="550" as="sourcePoint"/>
                        <mxPoint x="944.375" y="450" as="targetPoint"/>
                    </mxGeometry>
                </mxCell>
            </root>
        </mxGraphModel>
    </diagram>
</mxfile>